 http://www.imdb.com/title/tt0103644/


Lt. Ripley (Sigourney Weaver) is the lone survivor when her crippled spaceship crash lands on Fiorina 161, a bleak wasteland inhabited by former inmates of the planet's maximum security prison. Ripley's fears that an Alien was aboard her craft are confirmed when the mutilated bodies of ex-cons begin to mount. Without weapons or modern technology of any kind, Ripley must lead the men into battle against the terrifying creature. And soon she discovers a horrifying fact about her link with the Alien, a realisation that may compel Ripley to try destroying not only the horrific creature, but herself as well.


Format : MPEG-4
Format profile : Base Media / Version 2
Codec ID : mp42
File size : 999 MiB
Duration : 2h 18mn
Overall bit rate : 1 006 Kbps
Encoded date : UTC 2009-11-18 02:23:14
Tagged date : UTC 2009-11-18 07:53:02
Writing application : HandBrake 0.9.3 2008112300

Video
ID : 1
Format : AVC
Format/Info : Advanced Video Codec
Format profile : Main@L4.0
Format settings, CABAC : Yes
Format settings, ReFrames : 3 frames
Codec ID : avc1
Codec ID/Info : Advanced Video Coding
Duration : 2h 18mn
Bit rate mode : Variable
Bit rate : 842 Kbps
Width : 718 pixels
Height : 432 pixels
Display aspect ratio : 2.35:1
Frame rate mode : Variable
Frame rate : 25.000 fps
Minimum frame rate : 12.500 fps
Maximum frame rate : 86.486 fps
Resolution : 24 bits
Colorimetry : 4:2:0
Scan type : Progressive
Bits/(Pixel*Frame) : 0.109
Stream size : 837 MiB (84%)
Writing library : x264 core 65


Audio
ID : 2
Format : AAC
Format/Info : Advanced Audio Codec
Format version : Version 4
Format profile : LC
Format settings, SBR : No
Codec ID : 40
Duration : 2h 18mn
Bit rate mode : Variable
Bit rate : 160 Kbps
Maximum bit rate : 245 Kbps
Channel(s) : 2 channels
Channel positions : L R
Sampling rate : 48.0 KHz
Resolution : 16 bits
Stream size : 159 MiB (16%)
Language : English
Encoded date : UTC 2009-11-18 02:23:14
Tagged date : UTC 2009-11-18 07:52:56 